<svg xmlns="http://www.w3.org/2000/svg" width="190" height="62.46" viewBox="0 0 190 62.46"><defs><style>.a{fill:#707070;}</style></defs><g transform="translate(-358.586 -1078.799)"><path class="a" d="M394.453,1100.98c3.514,0,7.028.008,10.542-.01.434,0,.625.109.676.558.718,6.328-.186,12.3-4.213,17.44a20.9,20.9,0,0,1-13.713,7.946,24.518,24.518,0,0,1-12.381-.975c-8.847-3.263-14.507-9.436-16.331-18.75a22.438,22.438,0,0,1,4.079-17.97,23.993,23.993,0,0,1,16.385-10.1,23.052,23.052,0,0,1,19.175,5.292c.317.268.616.557.932.824.2.171.216.307.016.5q-2.094,2.071-4.168,4.163c-.227.229-.357.143-.549-.027a16.738,16.738,0,0,0-6.659-3.758,17.653,17.653,0,0,0-17.069,29.659,16.539,16.539,0,0,0,11.554,4.845,17.394,17.394,0,0,0,9.139-2.049,13.486,13.486,0,0,0,7.161-10.544c.064-.482-.19-.443-.491-.443l-14.424,0c-.855,0-.855,0-.855-.859q0-2.537,0-5.074c0-.675,0-.677.7-.677Z" transform="translate(0)"/><path class="a" d="M662.426,1135.049c0,4.483.017,8.966-.006,13.449a18.248,18.248,0,0,1-1.947,8.55,12.817,12.817,0,0,1-9.738,6.826,15.471,15.471,0,0,1-10.148-1.426,15.116,15.116,0,0,1-6.632-7c-.183-.379-.122-.541.274-.7q2.533-1.019,5.04-2.1c.353-.151.49-.064.65.26a8.887,8.887,0,0,0,4.845,4.6c2.509.968,6.893.672,9.162-2.1a9.074,9.074,0,0,0,1.886-4.636,29.571,29.571,0,0,0,.106-3.728c0-.121.036-.277-.1-.344-.169-.081-.258.071-.356.17-3.061,3.1-6.816,3.839-10.9,2.939a15.42,15.42,0,0,1-11.953-13.383,15.7,15.7,0,0,1,10.3-16.666,12.124,12.124,0,0,1,10.619.861,8.615,8.615,0,0,1,1.924,1.567c.095.1.185.26.349.2s.118-.244.12-.379c.007-.543.014-1.085,0-1.628-.008-.319.1-.462.441-.46,1.868.009,3.737.012,5.6,0,.4,0,.472.188.471.53-.009,1.962,0,3.925,0,5.887q0,4.355,0,8.711Zm-6.019-.418a10.406,10.406,0,0,0-.218-2.332,9.382,9.382,0,0,0-.586-1.918c-1.295-2.95-3.44-4.884-6.714-5.222a8.044,8.044,0,0,0-7.552,3.374,9.758,9.758,0,0,0-1.931,6.84,9.216,9.216,0,0,0,3.392,6.768,8.08,8.08,0,0,0,11.023-.614A9.634,9.634,0,0,0,656.407,1134.631Z" transform="translate(-156.265 -22.896)"/><path class="a" d="M490.653,1118.984a15.62,15.62,0,1,1-15.686,15.612A15.355,15.355,0,0,1,490.653,1118.984Zm-8.784,15.609a9.9,9.9,0,0,0,.694,3.791,8.6,8.6,0,0,0,14.489,2.753,10.191,10.191,0,0,0,.417-12.621,8.554,8.554,0,0,0-11.851-1.719A9.23,9.23,0,0,0,481.869,1134.594Z" transform="translate(-66.396 -22.926)"/><path class="a" d="M569.442,1150.234a15.6,15.6,0,1,1,15.672-15.58A15.436,15.436,0,0,1,569.442,1150.234Zm8.794-14.753a11.116,11.116,0,0,0-1.183-5.747,8.614,8.614,0,0,0-13.767-1.973,10.159,10.159,0,0,0-.687,12.9,8.513,8.513,0,0,0,11.2,2.191A8.846,8.846,0,0,0,578.236,1135.48Z" transform="translate(-111.352 -22.952)"/><path class="a" d="M748.409,1118.911c5.637.075,9.5,2.635,12.264,7.06a28.324,28.324,0,0,1,2.008,4.337c.141.343-.052.412-.289.51q-3.983,1.644-7.965,3.294-6.019,2.488-12.041,4.968c-.384.157-.429.3-.23.658,2.111,3.772,5.821,4.847,9.633,3.949a8.669,8.669,0,0,0,5.04-3.589c.253-.346.424-.4.789-.147,1.42.977,2.865,1.918,4.3,2.879.665.447.694.313.153,1.01a15.741,15.741,0,0,1-25.04.215,15.021,15.021,0,0,1-3.059-8.617,16.047,16.047,0,0,1,2.671-10.135A14.107,14.107,0,0,1,748.409,1118.911Zm.55,6.082c-.287.021-.625.019-.953.073a8.512,8.512,0,0,0-7.206,8.362c-.01.585,0,.6.529.382q6.168-2.552,12.334-5.11c1.189-.493,1.214-.574.34-1.58A6.543,6.543,0,0,0,748.959,1124.993Z" transform="translate(-214.143 -22.884)"/><path class="a" d="M718.345,1105.754v22.158c0,.767,0,.767-.752.767-1.788,0-3.577-.013-5.365.01-.466.006-.643-.109-.642-.61q.018-22.3,0-44.6c0-.43.121-.577.568-.572,1.852.024,3.7.009,5.557.01.628,0,.631,0,.631.634Q718.346,1094.651,718.345,1105.754Z" transform="translate(-201.387 -2.342)"/></g></svg>