<svg xmlns="http://www.w3.org/2000/svg" width="213.504" height="105.041" viewBox="0 0 213.504 105.041"><defs><style>.a{fill:#faa735;}.b{fill:#a376dd;}.c{fill:#8264b4;}.d{fill:#8154df;}.e{fill:#613fa7;}.f{fill:#e5e5e5;}.g{fill:#b7a5f1;}.h{fill:#fdfdfe;}</style></defs><g transform="translate(2300.959 190.708)"><path class="a" d="M-1460.062,242.712c.8-.02,1.591-.059,2.386-.058q9.086,0,18.173.024a7.681,7.681,0,0,1,.858.1c-.007,3.094-.525,6.145-.755,9.221a.932.932,0,0,1-1.06.97q-8.836-.025-17.673-.009c-.734,0-1.009-.321-1.07-1.041C-1459.464,248.845-1459.772,245.779-1460.062,242.712Z" transform="translate(-657.082 -338.632)"/><path class="b" d="M-2249.36-135.2a36.426,36.426,0,0,1,4.175,3.449,6.821,6.821,0,0,1,1.745,3.314,15.026,15.026,0,0,1,.006,4.881c-.076.352-.137.708-.23,1.056a24.584,24.584,0,0,1-3.444,7.055c-.117.179-.337.336-.216.568.17.326.448.1.672.061a6.542,6.542,0,0,0,3.362-1.88c.014.509.04,1.018.041,1.526q0,16.484,0,32.969l-.219.331c-1.632,0-3.265.037-4.9,0a6.075,6.075,0,0,1-2.566-.179c.25-.213.224-.51.268-.8a31.055,31.055,0,0,1,4.272-12.314,4.638,4.638,0,0,0,.461-1.1c.1-.311.169-.683-.233-.842-.367-.145-.611.083-.8.39-.5.84-.893,1.743-1.357,2.6a32.136,32.136,0,0,0-3.586,12.1,28.032,28.032,0,0,1-5.607.078,2.9,2.9,0,0,0-1.494-.152c-3.7-.023-7.4-.028-11.106-.04a138.95,138.95,0,0,0-5.521-16.4,155.923,155.923,0,0,0-7.783-16.444c-.594-1.082-1.208-2.154-1.83-3.221-.206-.354-.46-.7-.957-.414-.465.266-.243.61-.091.94.061.132.127.262.2.387a142.731,142.731,0,0,1,6.608,12.755,150.367,150.367,0,0,1,8.253,22.367l-8.124.031a.19.19,0,0,1-.149.049,10.624,10.624,0,0,0-5.858-9.242,42.631,42.631,0,0,0-6.6-2.8,32.564,32.564,0,0,1-4.614-2.449c-4.641-3.228-5.606-7.238-2.879-12.2a33.174,33.174,0,0,0,2.1-4.619c1.023-2.807.075-5.276-1.387-7.623a9.077,9.077,0,0,1-1.336-7.676,7.593,7.593,0,0,1,6.512-5.793,8.284,8.284,0,0,1,8.332,3.421,26.87,26.87,0,0,1,2.677,4.992c1.237,2.679,2.67,5.188,5.49,6.54,2.187,1.048,4.586,1.391,6.873,2.107.474.148.565-.165.673-.484a3.336,3.336,0,0,0-.374-2.727c-.409-.771-.889-1.505-1.279-2.286a6.321,6.321,0,0,1,1.717-8.306c1.328-1.1,2.58-2.194,2.331-4.137-.138-1.08-.369-2.147-.531-3.224-.324-2.148-.88-4.269-.564-6.484a6.644,6.644,0,0,1,7.832-5.739c3.795.64,5.381,2.322,5.772,6.119.078.759.175,1.516.241,2.275C-2254.073-139.051-2252.11-136.853-2249.36-135.2Zm-7.579,33.97a2.378,2.378,0,0,0,1.459-2.281c0-7.441.186-14.876-1.04-22.274-.712-4.3-1.459-8.576-2.554-12.791-.123-.473-.214-1.114-.945-.924-.762.2-.337.8-.238,1.175a113.585,113.585,0,0,1,3.391,21.484c.284,4.092.111,8.22.026,12.329A23.843,23.843,0,0,0-2256.939-101.229Zm-30.265-7.384c-.011-.366-.25-.51-.565-.542a2.747,2.747,0,0,1-2.635-2.587c-.051-.325-.133-.571-.5-.581-.322-.009-.424.213-.473.487a2.863,2.863,0,0,1-2.651,2.676c-.3.033-.577.159-.558.54s.317.465.61.5a2.714,2.714,0,0,1,2.579,2.512c.049.289.048.613.443.642.457.034.491-.3.551-.642a2.707,2.707,0,0,1,2.58-2.511C-2287.513-108.151-2287.259-108.255-2287.2-108.613Z" transform="translate(0 -31.099)"/><path class="b" d="M-1506.517-173.914a17.144,17.144,0,0,0,2.185-5.539,30.242,30.242,0,0,1,2.13-6.171,9.243,9.243,0,0,1,13.942-3.112,9.167,9.167,0,0,1,3.188,10.07c-.292,1.013-.62,2.018-.99,3a8.678,8.678,0,0,0,.887,8.226,42.725,42.725,0,0,0,3.1,4.208c.156.782.807,1.264,1.168,1.926,2.053,3.767,1.381,7.734-1.834,11.059a35.635,35.635,0,0,1-7.244,5.291,26.255,26.255,0,0,0-6.778,5.351c2.293.492,4.46,1.021,6.653,1.408a6.9,6.9,0,0,0,5.249-1.334c1.639-1.133,3.064-2.609,4.988-3.292,3.33-1.183,5.786.409,6.38,3.8.567,3.242-.761,5.859-2.85,8.195-.824.92-1.654,1.835-2.481,2.753l-1.056,0c0-.436-.013-.872-.012-1.308,0-2.144-.4-2.56-2.512-2.561q-8.448-.005-16.9-.007c-1.163,0-2.326-.019-3.488.011a1.6,1.6,0,0,0-1.785,1.806q-.014,1.035-.025,2.069c-.557.092-1.214-.205-1.667.2a1.915,1.915,0,0,0,.451,3.038q.135,1.795.269,3.589c-2.083,1.908-4.177,3.806-6.245,5.73-.824.767-1.589,1.6-2.385,2.393-.178.177-.365.4-.654.281-.245-.1-.239-.349-.232-.563.1-3.077-.26-6.167.374-9.229q.806-3.9,1.823-7.736a142.742,142.742,0,0,1,9.379-25.428c1.321-2.754,2.707-5.475,4.25-8.115.214-.366.663-.877.043-1.212-.523-.283-.765.264-.967.633-1.047,1.908-2.134,3.8-3.1,5.746a141.689,141.689,0,0,0-7.035,16.534c-1.222,3.539-2.375,7.1-3.3,10.728a20.435,20.435,0,0,1-1.476,4.65V-168.25l.219,0a22.17,22.17,0,0,0,5.172-2.457A8.021,8.021,0,0,0-1506.517-173.914Zm14.333,9.066c.22-.022.41-.231.464-.643a2.681,2.681,0,0,1,2.531-2.536c.313-.043.608-.1.639-.454.034-.4-.253-.578-.614-.605a2.526,2.526,0,0,1-2.556-2.542c-.036-.353-.232-.654-.608-.633-.352.019-.393.363-.434.657a2.625,2.625,0,0,1-2.536,2.512c-.374.037-.641.215-.619.61.021.36.315.411.629.453a2.668,2.668,0,0,1,2.525,2.537C-1492.718-165.11-1492.572-164.888-1492.183-164.847Z" transform="translate(-614.094)"/><path class="c" d="M-1941.9,214.963c1.012.217,1.281.936,1.287,1.861a9.6,9.6,0,0,1-9.1,9.274c-.4.014-.8,0-1.2,0q-52.538-.016-105.077,0c-3.341,0-6.543-.159-9.289-2.34a13.264,13.264,0,0,1-3.219-5.963,2.165,2.165,0,0,1,1.794-2.807c-.1.548.181.706.675.693.8-.02,1.6-.021,2.4-.021l114.784-.066c2.039,0,4.078-.005,6.116,0C-1942.268,215.6-1941.824,215.636-1941.9,214.963Z" transform="translate(-181.584 -316.994)"/><path class="d" d="M-1923.549-143.457v41.434a20.429,20.429,0,0,0,1.476-4.65c.926-3.632,2.079-7.189,3.3-10.728a141.709,141.709,0,0,1,7.035-16.534c.964-1.95,2.05-3.839,3.1-5.746.2-.369.444-.916.967-.633.621.335.171.846-.043,1.212-1.543,2.639-2.929,5.361-4.25,8.115a142.733,142.733,0,0,0-9.379,25.428q-1.012,3.844-1.823,7.736c-.634,3.063-.277,6.152-.374,9.229-.007.215-.013.466.232.563.289.115.476-.1.654-.281.8-.8,1.562-1.626,2.385-2.393,2.068-1.925,4.161-3.822,6.244-5.731a5.6,5.6,0,0,1,.2,1.695,4.689,4.689,0,0,0-1.417.985c-2.566,2.2-5.009,4.534-7.4,6.928a2.743,2.743,0,0,0-.92,2.1c.03,1.337.012,2.676.015,4.014a.386.386,0,0,0,.1.181,16.734,16.734,0,0,0,.018,3.057c-.764.207-1.021-.112-1.023-.867a9.982,9.982,0,0,0-.1-2.65q0-.412,0-.824a6.741,6.741,0,0,0,.107-.856q.009-9.109,0-18.218a6.2,6.2,0,0,0-.117-.853q0-.307,0-.613a2.5,2.5,0,0,0,.118-1.181q0-18.233,0-36.466c0-.433-.06-.866-.092-1.3v-.374a3.273,3.273,0,0,0-.027-1.8q0-.2,0-.394a44.865,44.865,0,0,0,.1-5.758,7.606,7.606,0,0,0-.146-2.8l-.027-.052-.263-.117q-55.067-.01-110.133-.019c-1.717,0-1.508-.163-1.508,1.523q-.009,36.813-.009,73.625l-.992.028q.005-.4.01-.807c.1-2.9.127-5.8-.014-8.693q0-.33,0-.66c.083-.131.017-.214-.091-.284a.157.157,0,0,1-.036-.174l.024-.456q0-16.484,0-32.969c0-.509-.027-1.018-.041-1.526.028-1.838.067-3.676.074-5.514,0-.452.151-.946-.218-1.346a15.019,15.019,0,0,0-.006-4.881c.353-.326.206-.752.206-1.135q.011-9.227.006-18.454c0-3.123,1.5-4.631,4.609-4.632q40.519-.012,81.04-.017c.145,0,.291.009.437.014.039.6.553.5.9.565a2.736,2.736,0,0,1,2.38,2.451c.053.329.044.685.5.69.439.006.517-.335.551-.666a2.622,2.622,0,0,1,2.432-2.474c.327-.058.657-.108.716-.529q8.49-.022,16.979-.051c.646,0,1.145.451,1.77.472a5.151,5.151,0,0,1,1.932,2.79c-.174,1.229.037,2.461-.026,3.687-.144,2.793-.1,5.584-.025,8.376ZM-1980.494-157c-2.657,0-5.315.021-7.972-.011-.934-.011-1.82.043-2.08,1.109-.167.684.835,1.271,2.09,1.277,2.221.011,4.441,0,6.662,0,3.167,0,6.334.007,9.5-.014.794-.005,1.59-.153,1.7-1.156.08-.757-.589-1.2-1.706-1.206Q-1976.4-157-1980.494-157Z" transform="translate(-205.614 -24.793)"/><path class="a" d="M-2181.743,164.126a.155.155,0,0,0,.036.172l.092.285c0,.22,0,.44,0,.657a78.806,78.806,0,0,0,.013,8.7q0,.4-.01.806a2.888,2.888,0,0,1-1.163.152c-1.33.009-2.66.044-3.99.069a2.164,2.164,0,0,0-1.794,2.807,13.258,13.258,0,0,0,3.219,5.963,1.5,1.5,0,0,1-1.14.241c-8.375,0-16.75-.006-25.125.023a6.848,6.848,0,0,1-5.522-2.331,7.526,7.526,0,0,1-1.383-2.928c-1.217-4-2.387-8-3.555-12.015a3.823,3.823,0,0,1-.151-1.289,1.715,1.715,0,0,1,1.856-1.587,8.052,8.052,0,0,0,2.384-.056.181.181,0,0,0,.148-.049c.287.437.731.226,1.1.227,2.765.014,5.531,0,8.3-.008l12.45-.027a28.018,28.018,0,0,0,5.606-.078l.972-.032a6.074,6.074,0,0,0,2.565.179c1.632.035,3.264,0,4.9,0Z" transform="translate(-61.529 -276.97)"/><path class="b" d="M-1515.069,148.927c0-1.338.015-2.676-.015-4.014a2.743,2.743,0,0,1,.92-2.1c2.387-2.394,4.83-4.726,7.4-6.928a4.684,4.684,0,0,1,1.417-.984c.135,1.3.238,2.607.412,3.9.266,1.986.286,1.983,2.287,1.984a.561.561,0,0,0,.506.488,2.874,2.874,0,0,1,2.748,2.6c.054.3.1.607.482.6.451,0,.456-.378.512-.7a2.8,2.8,0,0,1,2.5-2.482c.344-.055.648-.106.737-.5,1.419,0,2.838,0,4.257-.007q5.51-.036,11.021-.082c.731.1.929.522.857,1.23q-.788,7.753-1.525,15.511a1.119,1.119,0,0,1-1.085,1.13,7.682,7.682,0,0,0-.859-.1q-9.086-.02-18.172-.025c-.8,0-1.591.038-2.386.058-.669-.061-.878-.458-.938-1.094-.3-3.175-.665-6.345-.946-9.522-.066-.745-.362-.893-1.05-1.01a9.31,9.31,0,0,0-7.346,1.5,3.648,3.648,0,0,1-1.519.57A.561.561,0,0,0-1515.069,148.927Z" transform="translate(-614.087 -254.43)"/><path class="a" d="M-1469.538,121.015c-2,0-2.021,0-2.287-1.984-.174-1.3-.277-2.6-.412-3.9a5.609,5.609,0,0,0-.2-1.695l-.269-3.588a2.615,2.615,0,0,1,1.484-.219c8.056,0,16.113.019,24.169-.028,1.019-.006,1.5.2,1.321,1.271q-.044.424-.088.847-.025.48-.049.961-.451,4.128-.9,8.256-5.51.042-11.021.082c-1.419.009-2.838.005-4.257.008a.727.727,0,0,0-.723-.55,2.681,2.681,0,0,1-2.466-2.341c-.065-.3-.135-.7-.555-.7-.493,0-.5.442-.573.784a2.8,2.8,0,0,1-2.22,2.212C-1468.968,120.534-1469.39,120.545-1469.538,121.015Z" transform="translate(-647.201 -234.661)"/><path class="e" d="M-1448.781,177.887h-21.164a1.337,1.337,0,0,1-1.346-1.188l-1.548-15.913a1.328,1.328,0,0,1,1.346-1.435h24.259a1.327,1.327,0,0,1,1.346,1.435l-1.547,15.913A1.337,1.337,0,0,1-1448.781,177.887Z" transform="translate(-647.094 -273.538)"/><path class="f" d="M-1449.358,100.1c.176-1.068-.3-1.277-1.321-1.271-8.056.047-16.113.026-24.169.028a2.615,2.615,0,0,0-1.484.219,1.915,1.915,0,0,1-.451-3.038c.453-.408,1.11-.111,1.667-.2l24.719-.01,1.056,0a2.172,2.172,0,0,1,.627,3.072A13.114,13.114,0,0,0-1449.358,100.1Z" transform="translate(-643.577 -223.889)"/><path class="c" d="M-2060.083,201.581c1.33-.025,2.66-.06,3.99-.069a2.888,2.888,0,0,0,1.163-.152l.992-.028a2.824,2.824,0,0,0,1.5.182q54.486,0,108.972-.013c.218,0,.438-.017.655,0,.562.047.768-.2.776-.761a14.661,14.661,0,0,1,.088-2.936,9.961,9.961,0,0,1,.1,2.65c0,.754.26,1.074,1.023.867,1.475,0,2.949,0,4.424.011.383,0,.8-.107,1.124.222.079.673-.365.637-.825.635-2.039-.01-4.077-.006-6.116,0l-114.785.066c-.8,0-1.6,0-2.4.021C-2059.9,202.286-2060.183,202.128-2060.083,201.581Z" transform="translate(-188.206 -303.587)"/><path class="f" d="M-1349.936,120.246q.024-.481.049-.961A.772.772,0,0,1-1349.936,120.246Z" transform="translate(-743.135 -242.231)"/><path class="g" d="M-1515.012,199.073a.562.562,0,0,1,.214.022.469.469,0,0,1-.111.159A.391.391,0,0,1-1515.012,199.073Z" transform="translate(-614.144 -304.576)"/><path class="h" d="M-1635.565-171.866c-.058.42-.389.471-.715.529a2.621,2.621,0,0,0-2.432,2.474c-.034.331-.113.672-.551.666-.457-.006-.448-.361-.5-.69a2.736,2.736,0,0,0-2.38-2.451c-.346-.066-.859.03-.9-.565.12-.461.54-.447.874-.511a2.744,2.744,0,0,0,2.385-2.336c.069-.353.072-.795.566-.786s.476.435.545.8a2.812,2.812,0,0,0,2.362,2.379C-1635.978-172.29-1635.662-172.264-1635.565-171.866Z" transform="translate(-514.099 -11.855)"/><path class="d" d="M-2118.7-64.8c0-.013,0-.025,0-.037l-.006,0c.016-6.771.073-13.535-1.042-20.269-.712-4.3-1.459-8.576-2.554-12.791-.123-.473-.213-1.114-.945-.924-.763.2-.338.8-.238,1.175a113.564,113.564,0,0,1,3.391,21.484c.284,4.092.111,8.22.026,12.329-.014.668-.1,1.335-.129,2.026a76.943,76.943,0,0,1-5.729,20.573,11.452,11.452,0,0,1,1.652.01,79.253,79.253,0,0,0,5.478-19.663c0-.518.007-1.035.059-1.551.048-.477.1-.952.1-1.428,0-.026,0-.053,0-.08A5.334,5.334,0,0,0-2118.7-64.8Z" transform="translate(-136.774 -71.77)"/><path class="d" d="M-2219.465,32.937a150.339,150.339,0,0,0-8.253-22.367,142.6,142.6,0,0,0-6.608-12.755c-.074-.125-.14-.256-.2-.387-.153-.33-.374-.674.091-.94.5-.284.75.06.957.414.622,1.067,1.235,2.139,1.83,3.221a155.926,155.926,0,0,1,7.783,16.444,138.847,138.847,0,0,1,5.52,16.4A1.223,1.223,0,0,1-2219.465,32.937Z" transform="translate(-51.763 -146.193)"/><path class="h" d="M-2264.436,29.326c-.056.357-.31.461-.624.491a2.707,2.707,0,0,0-2.58,2.511c-.06.345-.094.676-.551.642-.394-.03-.394-.353-.443-.642a2.714,2.714,0,0,0-2.579-2.512c-.293-.031-.591-.116-.61-.5s.255-.507.558-.54a2.863,2.863,0,0,0,2.651-2.676c.049-.274.152-.5.473-.487.369.01.451.256.5.581A2.748,2.748,0,0,0-2265,28.783C-2264.687,28.815-2264.448,28.959-2264.436,29.326Z" transform="translate(-22.767 -169.036)"/><path class="d" d="M-2075.567,110.138l-.972.032a32.164,32.164,0,0,1,3.587-12.1c.465-.855.853-1.758,1.357-2.6.185-.308.43-.535.8-.39.4.159.332.531.232.842a4.658,4.658,0,0,1-.461,1.1,31.052,31.052,0,0,0-4.273,12.314C-2075.343,109.628-2075.317,109.925-2075.567,110.138Z" transform="translate(-175.363 -223.283)"/><path class="b" d="M-2193.989,163.609a1.223,1.223,0,0,0,1.118.03c3.7.011,7.4.017,11.106.039a2.9,2.9,0,0,1,1.495.152l-12.45.027c-2.765.006-5.531.022-8.3.008-.366,0-.81.21-1.1-.227Z" transform="translate(-77.239 -276.866)"/><path class="g" d="M-2037.758,163.869l-.2-.125.219-.331Q-2037.747,163.641-2037.758,163.869Z" transform="translate(-205.514 -276.713)"/><path class="h" d="M-1442.426,81.978l-24.719.01q.013-1.035.025-2.07a1.6,1.6,0,0,1,1.785-1.806c1.162-.03,2.325-.011,3.488-.011q8.448,0,16.9.007c2.109,0,2.515.417,2.512,2.561C-1442.439,81.106-1442.43,81.542-1442.426,81.978Z" transform="translate(-651.548 -210.045)"/><path class="h" d="M-1423.706-98.907c-.387-.042-.533-.264-.579-.646a2.668,2.668,0,0,0-2.525-2.537c-.314-.042-.608-.093-.629-.453-.023-.4.245-.573.619-.61a2.626,2.626,0,0,0,2.536-2.512c.042-.294.082-.638.434-.657.376-.02.572.281.608.633a2.527,2.527,0,0,0,2.556,2.542c.361.027.648.2.614.605-.031.355-.326.412-.639.454a2.681,2.681,0,0,0-2.531,2.536C-1423.295-99.138-1423.484-98.93-1423.706-98.907Z" transform="translate(-682.573 -65.94)"/><path class="g" d="M-1514.916-88.874a.406.406,0,0,1,.09.195l-.219,0Z" transform="translate(-614.118 -79.574)"/><path class="h" d="M-1919.911-58.237A14.661,14.661,0,0,0-1920-55.3c-.008.561-.213.808-.776.761-.217-.018-.437,0-.655,0q-54.486.008-108.972.013a2.823,2.823,0,0,1-1.5-.182q0-36.813.009-73.625c0-1.686-.209-1.523,1.508-1.523q55.066.008,110.133.019l.263.117.027.052c-.056,2.852-.133,5.7.041,8.555q0,.2-.005.394a3.568,3.568,0,0,0,.027,1.8q0,.187,0,.374a10.18,10.18,0,0,0-.111,1.073q-.007,18.4,0,36.792c0,.361.056.721.086,1.082q0,.307,0,.613a6.583,6.583,0,0,0-.084.753q-.008,9.211,0,18.422a5.845,5.845,0,0,0,.095.751Q-1919.911-58.649-1919.911-58.237Zm-56.707-5.215h44.037c1.425,0,1.427,0,1.427-1.439q0-26.712,0-53.423c0-.255-.012-.51,0-.765.034-.785-.37-1.093-1.09-.9a7.535,7.535,0,0,1-1.952.147q-42.616,0-85.232,0a9.933,9.933,0,0,1-1.2-.028c-1.446-.177-1.447-.186-1.447,1.216q0,26.876,0,53.751c0,1.441,0,1.444,1.421,1.444Z" transform="translate(-210.245 -47.544)"/><path class="g" d="M-1811.548-149.971q4.1,0,8.19,0c1.117,0,1.785.449,1.706,1.206-.106,1-.9,1.15-1.7,1.155-3.167.021-6.334.013-9.5.014-2.221,0-4.441.008-6.662,0-1.255-.007-2.257-.594-2.09-1.277.26-1.066,1.146-1.12,2.08-1.109C-1816.863-149.952-1814.205-149.973-1811.548-149.971Z" transform="translate(-374.56 -31.822)"/><path class="g" d="M-1519.947-39.146c-.03-.36-.086-.721-.086-1.082q-.008-18.4,0-36.792a10.115,10.115,0,0,1,.111-1.073c.032.433.092.866.092,1.3q.009,18.233,0,36.466A2.5,2.5,0,0,1-1519.947-39.146Z" transform="translate(-610.216 -87.998)"/><path class="g" d="M-1519.938,122.807a5.868,5.868,0,0,1-.095-.751q-.008-9.211,0-18.422a6.583,6.583,0,0,1,.084-.753,6.164,6.164,0,0,1,.117.853q.01,9.109,0,18.218A6.786,6.786,0,0,1-1519.938,122.807Z" transform="translate(-610.218 -229.412)"/><path class="g" d="M-2036.848,179.291a78.686,78.686,0,0,1-.013-8.7C-2036.72,173.5-2036.746,176.394-2036.848,179.291Z" transform="translate(-206.279 -282.325)"/><path class="g" d="M-1520-120.428c-.174-2.851-.1-5.7-.041-8.555a7.6,7.6,0,0,1,.146,2.8A44.777,44.777,0,0,1-1520-120.428Z" transform="translate(-610.159 -48.233)"/><path class="g" d="M-1519.982-86.243a3.57,3.57,0,0,1-.027-1.8A3.271,3.271,0,0,1-1519.982-86.243Z" transform="translate(-610.159 -80.223)"/><path class="g" d="M-2036.8,166.571l-.092-.285C-2036.786,166.357-2036.72,166.44-2036.8,166.571Z" transform="translate(-206.341 -278.957)"/><path class="g" d="M-1520.871-129.638l-.263-.117Z" transform="translate(-609.36 -47.629)"/><path class="h" d="M-1458.211,149.023c.148-.47.57-.48.951-.587a2.8,2.8,0,0,0,2.22-2.212c.07-.342.08-.783.573-.784.42,0,.49.4.555.7a2.68,2.68,0,0,0,2.466,2.341.727.727,0,0,1,.723.55c-.089.4-.393.449-.737.5a2.8,2.8,0,0,0-2.5,2.482c-.057.32-.061.7-.512.7-.381,0-.428-.307-.482-.6a2.874,2.874,0,0,0-2.748-2.6A.561.561,0,0,1-1458.211,149.023Z" transform="translate(-658.528 -262.668)"/><path class="f" d="M-1941.505-28.323h-44.037c-1.419,0-1.42,0-1.421-1.444q0-26.875,0-53.751c0-1.4,0-1.393,1.447-1.216a9.93,9.93,0,0,0,1.2.028q42.616,0,85.232,0a7.534,7.534,0,0,0,1.952-.147c.72-.188,1.124.119,1.09.9-.011.254,0,.51,0,.765q0,26.712,0,53.423c0,1.436,0,1.439-1.427,1.439Zm-18.149-27.091a.617.617,0,0,0-.039.846,2.573,2.573,0,0,1-.143,1.6,4.61,4.61,0,0,0-.275,2.127.92.92,0,0,1-.035.707.449.449,0,0,0-.027.569c.073.4.186.8-.139,1.146a.643.643,0,0,0-.054.835c-.071,1.085-.12,2.172-.219,3.255a4.278,4.278,0,0,0,1.537,4.072,5.435,5.435,0,0,0,3.053.983q9.27.979,18.549,1.877c2.75.266,5.484.733,8.252.762,2.712.028,4.193-1.461,4.5-4.132.324-2.817.356-5.651.8-8.466.456-2.9.41-5.877.825-8.785a28.61,28.61,0,0,1,.414-3.841,4.173,4.173,0,0,0-2.235-4.832,8.651,8.651,0,0,0-3.6-.678c-1.938-.21-1.941-.155-1.8-2.038a2.8,2.8,0,0,0-.031-.754,10.875,10.875,0,0,0-3.729-6.522,10.694,10.694,0,0,0-11.251-1.273,10.289,10.289,0,0,0-5.56,7.266.986.986,0,0,1-1.23.9c-.794-.085-1.595-.145-2.394-.154a4.032,4.032,0,0,0-3.813,3.009,23.935,23.935,0,0,0-.532,5.739,6.728,6.728,0,0,0-.923.3c-.326.158-.413.568-.1.678.788.282.482.845.454,1.333-.065,1.15-.157,2.3-.238,3.448Z" transform="translate(-245.358 -82.674)"/><path class="a" d="M-1865.656-31.923a2.574,2.574,0,0,0,.143-1.6q.019-.423.039-.847l.008-.021a14.792,14.792,0,0,0,.429-3.319c.024-.347-.008-.792.389-.948.377-.148.687.15.984.352a2.634,2.634,0,0,1,1,1.867c.061.33.132.7.556.683s.49-.367.533-.708a2.723,2.723,0,0,1,2.287-2.443c.333-.082.837-.033.835-.518,0-.5-.474-.551-.879-.628a2.648,2.648,0,0,1-2.231-2.235c-.075-.35-.062-.791-.554-.809-.6-.022-.506.505-.592.868a2.483,2.483,0,0,1-1.951,2.075,23.923,23.923,0,0,1,.532-5.739,4.032,4.032,0,0,1,3.813-3.009c.8.01,1.6.069,2.394.154a.986.986,0,0,0,1.23-.9,10.289,10.289,0,0,1,5.56-7.266,10.694,10.694,0,0,1,11.251,1.273,10.875,10.875,0,0,1,3.728,6.522,2.8,2.8,0,0,1,.031.754c-.138,1.883-.135,1.828,1.8,2.038a8.653,8.653,0,0,1,3.6.678,4.173,4.173,0,0,1,2.235,4.832,28.61,28.61,0,0,0-.414,3.841c-.416,2.908-.369,5.885-.826,8.785-.443,2.815-.475,5.65-.8,8.466-.307,2.671-1.788,4.161-4.5,4.132-2.769-.029-5.5-.5-8.253-.762q-9.278-.9-18.549-1.877a5.435,5.435,0,0,1-3.053-.983,4.278,4.278,0,0,1-1.537-4.072c.1-1.083.148-2.17.219-3.255q.027-.417.054-.835c.325-.348.212-.75.139-1.146q.014-.285.027-.569a.921.921,0,0,0,.035-.707A4.06,4.06,0,0,0-1865.656-31.923Zm24-2.037a5.92,5.92,0,0,0-.952-3.405,5.518,5.518,0,0,0-5.57-2.389,5.443,5.443,0,0,0-4.375,4.02,5.052,5.052,0,0,0,1.911,5.791,1.918,1.918,0,0,1,.909,2,13.51,13.51,0,0,0-.18,1.84,1.785,1.785,0,0,0,1.651,1.84,1.866,1.866,0,0,0,2-1.316,4.9,4.9,0,0,0,.207-1.607c-.163-1.239.454-1.778,1.491-2.273A5.34,5.34,0,0,0-1841.652-33.96Zm.227-13.073c1.23.193,1.375.064,1.24-1.236a6.376,6.376,0,0,0-5.856-5.51,6.318,6.318,0,0,0-6.441,4.634c-.182.683-.04,1,.715,1.07C-1848.379-47.755-1844.994-47.4-1841.425-47.034Z" transform="translate(-339.538 -103.723)"/><path class="h" d="M-1862.64,13.037a2.484,2.484,0,0,0,1.951-2.075c.086-.363-.007-.889.592-.868.492.018.479.459.554.809a2.648,2.648,0,0,0,2.231,2.235c.4.077.877.126.879.628,0,.485-.5.435-.835.518a2.723,2.723,0,0,0-2.286,2.443c-.043.341-.123.694-.533.708s-.5-.353-.556-.683a2.634,2.634,0,0,0-1-1.867c-.3-.2-.607-.5-.984-.352-.4.156-.365.6-.389.948a14.806,14.806,0,0,1-.429,3.319c.081-1.149.173-2.3.238-3.448.027-.488.334-1.052-.454-1.333-.308-.11-.221-.52.1-.678A6.728,6.728,0,0,1-1862.64,13.037Z" transform="translate(-341.553 -156.907)"/><path class="f" d="M-1863.848,61.186a4.065,4.065,0,0,1-.275,2.127A4.607,4.607,0,0,1-1863.848,61.186Z" transform="translate(-341.347 -196.832)"/><path class="f" d="M-1862.7,50.015q-.019.423-.038.847A.617.617,0,0,1-1862.7,50.015Z" transform="translate(-342.309 -188.103)"/><path class="f" d="M-1865.692,82q-.027.417-.054.835A.643.643,0,0,1-1865.692,82Z" transform="translate(-339.978 -213.094)"/><path class="f" d="M-1864.7,74.151q-.014.285-.027.569A.449.449,0,0,1-1864.7,74.151Z" transform="translate(-340.809 -206.963)"/><path class="c" d="M-1792.894,30.815a5.34,5.34,0,0,1-2.907,4.5c-1.037.495-1.654,1.034-1.491,2.273a4.905,4.905,0,0,1-.206,1.607,1.866,1.866,0,0,1-2,1.316,1.785,1.785,0,0,1-1.651-1.84,13.549,13.549,0,0,1,.18-1.84,1.918,1.918,0,0,0-.909-2,5.051,5.051,0,0,1-1.911-5.791,5.443,5.443,0,0,1,4.375-4.02,5.518,5.518,0,0,1,5.57,2.389A5.922,5.922,0,0,1-1792.894,30.815Z" transform="translate(-388.296 -168.498)"/><path class="f" d="M-1791.794-32.1c-3.569-.363-6.954-.721-10.342-1.042-.755-.071-.9-.387-.715-1.07a6.319,6.319,0,0,1,6.441-4.634,6.376,6.376,0,0,1,5.856,5.51C-1790.418-32.037-1790.564-31.909-1791.794-32.1Z" transform="translate(-389.17 -118.655)"/></g></svg>